<svg xmlns="http://www.w3.org/2000/svg" viewBox="0 0 64 64" width="64" height="64">
  <!-- Background circle with gradient -->
  <defs>
    <linearGradient id="bgGradient" x1="0%" y1="0%" x2="100%" y2="100%">
      <stop offset="0%" style="stop-color:#1e40af;stop-opacity:1" />
      <stop offset="100%" style="stop-color:#3b82f6;stop-opacity:1" />
    </linearGradient>
    <linearGradient id="senseiGradient" x1="0%" y1="0%" x2="100%" y2="100%">
      <stop offset="0%" style="stop-color:#fbbf24;stop-opacity:1" />
      <stop offset="100%" style="stop-color:#f59e0b;stop-opacity:1" />
    </linearGradient>
  </defs>
  
  <!-- Background circle -->
  <circle cx="32" cy="32" r="30" fill="url(#bgGradient)" stroke="#1e40af" stroke-width="2"/>
  
  <!-- Sensei belt/sash -->
  <rect x="8" y="28" width="48" height="8" fill="url(#senseiGradient)" rx="4"/>
  
  <!-- Martial arts figure (simplified) -->
  <circle cx="32" cy="20" r="6" fill="#ffffff" opacity="0.9"/>
  <rect x="28" y="26" width="8" height="16" fill="#ffffff" opacity="0.9" rx="2"/>
  <rect x="24" y="30" width="6" height="2" fill="#ffffff" opacity="0.9" rx="1"/>
  <rect x="34" y="30" width="6" height="2" fill="#ffffff" opacity="0.9" rx="1"/>
  <rect x="26" y="42" width="4" height="8" fill="#ffffff" opacity="0.9" rx="1"/>
  <rect x="34" y="42" width="4" height="8" fill="#ffffff" opacity="0.9" rx="1"/>
  
  <!-- UAE Pass shield -->
  <path d="M32 45 L28 48 L28 54 L32 56 L36 54 L36 48 Z" fill="#dc2626" opacity="0.9"/>
  <text x="32" y="52" text-anchor="middle" fill="white" font-size="6" font-weight="bold">🇦🇪</text>
</svg>
